# Blender 3.6.5
# www.blender.org
mtllib slash1.mtl
o slash_curve
v -0.935988 0.000000 -0.238731
v -0.990767 0.027200 -0.189198
v -1.104215 0.075745 -0.086614
v -1.200000 0.101692 0.000000
v -1.287442 0.075745 0.079069
v -1.385395 0.027199 0.167642
v -1.431830 0.000000 0.209631
v -0.884169 0.000000 -0.155585
v -0.931265 0.025527 -0.104732
v -1.028801 0.071087 0.000587
v -1.111152 0.095439 0.089510
v -1.186330 0.071087 0.170686
v -1.270544 0.025526 0.261621
v -1.310466 0.000000 0.304729
v -0.810695 0.000000 -0.064371
v -0.850600 0.023855 -0.013354
v -0.933245 0.066430 0.092304
v -1.003022 0.089186 0.181512
v -1.066722 0.066429 0.262950
v -1.138078 0.023854 0.354177
v -1.171905 0.000000 0.397424
v -0.719539 0.000000 0.028023
v -0.752476 0.022182 0.078448
v -0.820688 0.061772 0.182880
v -0.878281 0.082932 0.271053
v -0.930857 0.061772 0.351546
v -0.989753 0.022181 0.441714
v -1.017672 0.000000 0.484458
v -0.614470 0.000000 0.115736
v -0.640432 0.020510 0.165001
v -0.694200 0.057114 0.267031
v -0.739597 0.076679 0.353176
v -0.781039 0.057114 0.431817
v -0.827463 0.020509 0.519911
v -0.849471 0.000000 0.561673
v -0.498818 0.000000 0.193762
v -0.517662 0.018837 0.241310
v -0.556689 0.052457 0.339783
v -0.589640 0.070426 0.422925
v -0.619720 0.052456 0.498825
v -0.653417 0.018836 0.583849
v -0.669391 0.000000 0.624155
v -0.375454 0.000000 0.257726
v -0.386995 0.017164 0.302879
v -0.410898 0.047799 0.396392
v -0.431079 0.064173 0.475347
v -0.449502 0.047799 0.547424
v -0.470140 0.017164 0.628164
v -0.479923 0.000000 0.666440
v -0.246498 0.000000 0.303752
v -0.250665 0.015492 0.345608
v -0.259296 0.043141 0.432294
v -0.266583 0.057919 0.505484
v -0.273236 0.043141 0.572299
v -0.280688 0.015491 0.647144
v -0.284220 0.000000 0.682625
v -0.109848 0.000000 0.327877
v -0.107560 0.013819 0.365329
v -0.102823 0.038483 0.442893
v -0.098822 0.051666 0.508382
v -0.095171 0.038483 0.568166
v -0.091080 0.013819 0.635137
v -0.089141 0.000000 0.666884
v 0.044290 0.000000 0.328098
v 0.050813 0.012147 0.360427
v 0.064325 0.033826 0.427381
v 0.075732 0.045413 0.483911
v 0.086146 0.033825 0.535517
v 0.097812 0.012146 0.593327
v 0.103342 0.000000 0.620731
v 0.216363 0.000000 0.305082
v 0.225163 0.010474 0.332125
v 0.243389 0.029168 0.388132
v 0.258778 0.039160 0.435420
v 0.272826 0.029168 0.478589
v 0.288563 0.010474 0.526947
v 0.296023 0.000000 0.549871
v 0.397380 0.000000 0.258253
v 0.407239 0.008802 0.280022
v 0.427659 0.024510 0.325107
v 0.444899 0.032906 0.363172
v 0.460638 0.024510 0.397922
v 0.478269 0.008801 0.436849
v 0.486626 0.000000 0.455302
v 0.580929 0.000000 0.187285
v 0.590836 0.007129 0.203914
v 0.611355 0.019853 0.238352
v 0.628679 0.026653 0.267430
v 0.644494 0.019852 0.293974
v 0.662210 0.007129 0.323709
v 0.670609 0.000000 0.337805
v 0.761169 0.000000 0.091856
v 0.770201 0.005456 0.103600
v 0.788907 0.015195 0.127921
v 0.804702 0.020400 0.148455
v 0.819120 0.015195 0.167201
v 0.835271 0.005456 0.188200
v 0.842928 0.000000 0.198154
v 0.932582 0.000000 -0.028547
v 0.939837 0.003784 -0.021273
v 0.954863 0.010537 -0.006208
v 0.967550 0.014147 0.006511
v 0.979132 0.010537 0.018123
v 0.992105 0.003784 0.031130
v 0.998256 0.000000 0.037296
v 1.089736 0.000000 -0.174758
v 1.094316 0.002111 -0.171310
v 1.103800 0.005879 -0.164169
v 1.111808 0.007893 -0.158139
v 1.119118 0.005879 -0.152635
v 1.127308 0.002111 -0.146470
v 1.131190 0.000000 -0.143547
v 1.227002 0.000000 -0.347950
v 1.228052 0.000000 -0.347386
v 1.230225 0.001222 -0.346219
v 1.232060 0.001640 -0.345234
v 1.233735 0.001222 -0.344334
v 1.235612 0.000000 -0.343327
v 1.236501 0.000000 -0.342849
v -0.990767 -0.027200 -0.189198
v -1.104215 -0.075745 -0.086614
v -1.200000 -0.101692 0.000000
v -1.287442 -0.075745 0.079069
v -1.385395 -0.027199 0.167642
v -0.931265 -0.025527 -0.104732
v -1.028801 -0.071087 0.000587
v -1.111152 -0.095439 0.089510
v -1.186330 -0.071087 0.170686
v -1.270544 -0.025526 0.261621
v -0.850600 -0.023855 -0.013354
v -0.933245 -0.066430 0.092304
v -1.003022 -0.089186 0.181512
v -1.066722 -0.066429 0.262950
v -1.138078 -0.023854 0.354177
v -0.752476 -0.022182 0.078448
v -0.820688 -0.061772 0.182880
v -0.878281 -0.082932 0.271053
v -0.930857 -0.061772 0.351546
v -0.989753 -0.022181 0.441714
v -0.640432 -0.020510 0.165001
v -0.694200 -0.057114 0.267031
v -0.739597 -0.076679 0.353176
v -0.781039 -0.057114 0.431817
v -0.827463 -0.020509 0.519911
v -0.517662 -0.018837 0.241310
v -0.556689 -0.052457 0.339783
v -0.589640 -0.070426 0.422925
v -0.619720 -0.052456 0.498825
v -0.653417 -0.018836 0.583849
v -0.386995 -0.017164 0.302879
v -0.410898 -0.047799 0.396392
v -0.431079 -0.064173 0.475347
v -0.449502 -0.047799 0.547424
v -0.470140 -0.017164 0.628164
v -0.250665 -0.015492 0.345608
v -0.259296 -0.043141 0.432294
v -0.266583 -0.057919 0.505484
v -0.273236 -0.043141 0.572299
v -0.280688 -0.015491 0.647144
v -0.107560 -0.013819 0.365329
v -0.102823 -0.038483 0.442893
v -0.098822 -0.051666 0.508382
v -0.095171 -0.038483 0.568166
v -0.091080 -0.013819 0.635137
v 0.050813 -0.012147 0.360427
v 0.064325 -0.033826 0.427381
v 0.075732 -0.045413 0.483911
v 0.086146 -0.033825 0.535517
v 0.097812 -0.012146 0.593327
v 0.225163 -0.010474 0.332125
v 0.243389 -0.029168 0.388132
v 0.258778 -0.039160 0.435420
v 0.272826 -0.029168 0.478589
v 0.288563 -0.010474 0.526947
v 0.407239 -0.008802 0.280022
v 0.427659 -0.024510 0.325107
v 0.444899 -0.032906 0.363172
v 0.460638 -0.024510 0.397922
v 0.478269 -0.008801 0.436849
v 0.590836 -0.007129 0.203914
v 0.611355 -0.019853 0.238352
v 0.628679 -0.026653 0.267430
v 0.644494 -0.019852 0.293974
v 0.662210 -0.007129 0.323709
v 0.770201 -0.005456 0.103600
v 0.788907 -0.015195 0.127921
v 0.804702 -0.020400 0.148455
v 0.819120 -0.015195 0.167201
v 0.835271 -0.005456 0.188200
v 0.939837 -0.003784 -0.021273
v 0.954863 -0.010537 -0.006208
v 0.967550 -0.014147 0.006511
v 0.979132 -0.010537 0.018123
v 0.992105 -0.003784 0.031130
v 1.094316 -0.002111 -0.171310
v 1.103800 -0.005879 -0.164169
v 1.111808 -0.007893 -0.158139
v 1.119118 -0.005879 -0.152635
v 1.127308 -0.002111 -0.146470
v 1.230225 -0.001222 -0.346219
v 1.232060 -0.001640 -0.345234
v 1.233735 -0.001222 -0.344334
vn 0.2798 0.9432 -0.1792
vn 0.2659 0.9444 -0.1931
vn 0.8160 -0.0000 -0.5780
vn 0.8450 -0.0000 -0.5348
vn 0.2173 0.9667 -0.1355
vn 0.2071 0.9674 -0.1458
vn 0.0242 0.9987 0.0459
vn 0.0243 0.9988 0.0426
vn -0.1678 0.9578 0.2335
vn -0.1582 0.9585 0.2374
vn -0.2305 0.9261 0.2987
vn -0.2180 0.9270 0.3053
vn -0.6150 -0.0000 0.7885
vn -0.5873 -0.0000 0.8093
vn 0.2431 0.9448 -0.2198
vn 0.7471 -0.0000 -0.6647
vn 0.1899 0.9676 -0.1663
vn 0.0245 0.9990 0.0375
vn -0.1408 0.9586 0.2473
vn -0.1945 0.9271 0.3203
vn -0.5249 -0.0000 0.8512
vn 0.2202 0.9450 -0.2420
vn 0.6781 -0.0000 -0.7350
vn 0.1725 0.9677 -0.1837
vn 0.0252 0.9991 0.0341
vn -0.1212 0.9587 0.2572
vn -0.1685 0.9272 0.3344
vn -0.4558 -0.0000 0.8901
vn 0.1950 0.9450 -0.2624
vn 0.6020 -0.0000 -0.7985
vn 0.1531 0.9678 -0.1997
vn 0.0267 0.9991 0.0315
vn -0.0980 0.9587 0.2669
vn -0.1379 0.9273 0.3481
vn -0.3744 -0.0000 0.9273
vn 0.1652 0.9451 -0.2820
vn 0.5121 -0.0000 -0.8589
vn 0.1301 0.9679 -0.2150
vn 0.0289 0.9992 0.0292
vn -0.0696 0.9587 0.2759
vn -0.1005 0.9273 0.3607
vn -0.2753 -0.0000 0.9614
vn 0.1284 0.9451 -0.3005
vn 0.4012 -0.0000 -0.9160
vn 0.1017 0.9680 -0.2295
vn 0.0318 0.9991 0.0266
vn -0.0345 0.9585 0.2828
vn -0.0545 0.9272 0.3706
vn -0.1531 -0.0000 0.9882
vn 0.0813 0.9453 -0.3159
vn 0.2595 -0.0000 -0.9657
vn 0.0658 0.9682 -0.2415
vn 0.0351 0.9991 0.0233
vn 0.0082 0.9584 0.2853
vn 0.0016 0.9271 0.3747
vn -0.0043 -0.0000 1.0000
vn 0.0272 0.9456 -0.3243
vn 0.0925 -0.0000 -0.9957
vn 0.0247 0.9683 -0.2485
vn 0.0374 0.9992 0.0173
vn 0.0530 0.9584 0.2806
vn 0.0608 0.9271 0.3700
vn 0.1541 -0.0000 0.9881
vn -0.0221 0.9456 -0.3246
vn -0.0623 -0.0000 -0.9981
vn -0.0128 0.9682 -0.2497
vn 0.0369 0.9993 0.0101
vn 0.0894 0.9586 0.2704
vn 0.1099 0.9271 0.3582
vn 0.2874 -0.0000 0.9578
vn -0.0627 0.9456 -0.3191
vn -0.1889 -0.0000 -0.9820
vn -0.0440 0.9682 -0.2461
vn 0.0356 0.9993 0.0057
vn 0.1183 0.9588 0.2584
vn 0.1491 0.9273 0.3433
vn 0.3933 -0.0000 0.9194
vn -0.0996 0.9457 -0.3094
vn -0.3032 -0.0000 -0.9529
vn -0.0725 0.9683 -0.2391
vn 0.0347 0.9994 0.0022
vn 0.1450 0.9588 0.2442
vn 0.1850 0.9274 0.3252
vn 0.4900 -0.0000 0.8717
vn -0.1348 0.9458 -0.2956
vn -0.4122 -0.0000 -0.9111
vn -0.0998 0.9683 -0.2289
vn 0.0340 0.9994 -0.0010
vn 0.1707 0.9588 0.2270
vn 0.2196 0.9274 0.3029
vn 0.5828 -0.0000 0.8126
vn -0.1695 0.9458 -0.2769
vn -0.5196 -0.0000 -0.8544
vn -0.1266 0.9684 -0.2149
vn 0.0336 0.9994 -0.0041
vn 0.1960 0.9588 0.2057
vn 0.2535 0.9273 0.2753
vn 0.6737 -0.0000 0.7390
vn -0.2040 0.9459 -0.2522
vn -0.6266 -0.0000 -0.7793
vn -0.1533 0.9685 -0.1962
vn 0.0331 0.9994 -0.0074
vn 0.2208 0.9587 0.1794
vn 0.2866 0.9273 0.2409
vn 0.7622 -0.0000 0.6473
vn -0.2318 0.9485 -0.2158
vn -0.7260 -0.0000 -0.6877
vn -0.1842 0.9671 -0.1756
vn 0.0326 0.9994 -0.0109
vn 0.2511 0.9561 0.1509
vn 0.3098 0.9308 0.1938
vn 0.8434 -0.0000 0.5373
vn -0.7816 -0.0000 -0.6238
vn -0.7804 -0.0000 -0.6253
vn -0.2008 0.9656 -0.1651
vn 0.0324 0.9994 -0.0126
vn 0.2681 0.9537 0.1362
vn 0.8857 -0.0000 0.4642
vn 0.8862 -0.0000 0.4632
vn 0.2798 -0.9432 -0.1792
vn 0.2659 -0.9444 -0.1931
vn 0.2173 -0.9667 -0.1355
vn 0.2071 -0.9674 -0.1458
vn 0.0242 -0.9987 0.0459
vn 0.0243 -0.9988 0.0426
vn -0.1678 -0.9578 0.2335
vn -0.1582 -0.9585 0.2374
vn -0.2305 -0.9261 0.2987
vn -0.2180 -0.9270 0.3053
vn 0.2431 -0.9448 -0.2198
vn 0.1899 -0.9676 -0.1663
vn 0.0245 -0.9990 0.0375
vn -0.1408 -0.9586 0.2473
vn -0.1945 -0.9271 0.3203
vn 0.2202 -0.9450 -0.2420
vn 0.1725 -0.9677 -0.1837
vn 0.0252 -0.9991 0.0341
vn -0.1212 -0.9587 0.2572
vn -0.1685 -0.9272 0.3344
vn 0.1950 -0.9450 -0.2624
vn 0.1531 -0.9678 -0.1997
vn 0.0267 -0.9991 0.0315
vn -0.0980 -0.9587 0.2669
vn -0.1379 -0.9273 0.3481
vn 0.1652 -0.9451 -0.2820
vn 0.1301 -0.9679 -0.2150
vn 0.0289 -0.9992 0.0292
vn -0.0696 -0.9587 0.2759
vn -0.1005 -0.9273 0.3607
vn 0.1284 -0.9451 -0.3005
vn 0.1017 -0.9680 -0.2295
vn 0.0318 -0.9991 0.0266
vn -0.0345 -0.9585 0.2828
vn -0.0545 -0.9272 0.3706
vn 0.0813 -0.9453 -0.3159
vn 0.0658 -0.9682 -0.2415
vn 0.0351 -0.9991 0.0233
vn 0.0082 -0.9584 0.2853
vn 0.0016 -0.9271 0.3747
vn 0.0272 -0.9456 -0.3243
vn 0.0247 -0.9683 -0.2485
vn 0.0374 -0.9992 0.0173
vn 0.0530 -0.9584 0.2806
vn 0.0608 -0.9271 0.3700
vn -0.0221 -0.9456 -0.3246
vn -0.0128 -0.9682 -0.2497
vn 0.0369 -0.9993 0.0101
vn 0.0894 -0.9586 0.2704
vn 0.1099 -0.9271 0.3582
vn -0.0627 -0.9456 -0.3191
vn -0.0440 -0.9682 -0.2461
vn 0.0356 -0.9993 0.0057
vn 0.1183 -0.9588 0.2584
vn 0.1491 -0.9273 0.3433
vn -0.0996 -0.9457 -0.3094
vn -0.0725 -0.9683 -0.2391
vn 0.0347 -0.9994 0.0022
vn 0.1450 -0.9588 0.2442
vn 0.1850 -0.9274 0.3252
vn -0.1348 -0.9458 -0.2956
vn -0.0998 -0.9683 -0.2289
vn 0.0340 -0.9994 -0.0010
vn 0.1707 -0.9588 0.2270
vn 0.2196 -0.9274 0.3029
vn -0.1695 -0.9458 -0.2769
vn -0.1266 -0.9684 -0.2149
vn 0.0336 -0.9994 -0.0041
vn 0.1960 -0.9588 0.2057
vn 0.2535 -0.9273 0.2753
vn -0.2040 -0.9459 -0.2522
vn -0.1533 -0.9685 -0.1962
vn 0.0331 -0.9994 -0.0074
vn 0.2208 -0.9587 0.1794
vn 0.2866 -0.9273 0.2409
vn -0.2318 -0.9485 -0.2158
vn -0.1842 -0.9671 -0.1756
vn 0.0326 -0.9994 -0.0109
vn 0.2511 -0.9561 0.1509
vn 0.3098 -0.9308 0.1938
vn -0.2008 -0.9656 -0.1651
vn 0.0324 -0.9994 -0.0126
vn 0.2681 -0.9537 0.1362
vt 0.009386 0.122967
vt 0.052309 0.122967
vt 0.052309 0.012373
vt 0.009386 0.012373
vt 0.009386 0.347140
vt 0.052309 0.347140
vt 0.009386 0.529087
vt 0.052309 0.529087
vt 0.009386 0.696096
vt 0.052309 0.696096
vt 0.009386 0.893793
vt 0.052309 0.893793
vt 0.009386 0.990494
vt 0.052309 0.990494
vt 0.100634 0.122967
vt 0.100634 0.012373
vt 0.100634 0.347140
vt 0.100634 0.529087
vt 0.100634 0.696096
vt 0.100634 0.893793
vt 0.100634 0.990494
vt 0.152893 0.122967
vt 0.152893 0.012373
vt 0.152893 0.347140
vt 0.152893 0.529087
vt 0.152893 0.696096
vt 0.152893 0.893793
vt 0.152893 0.990494
vt 0.207731 0.122967
vt 0.207731 0.012373
vt 0.207731 0.347140
vt 0.207731 0.529087
vt 0.207731 0.696096
vt 0.207731 0.893793
vt 0.207731 0.990494
vt 0.263980 0.122967
vt 0.263980 0.012373
vt 0.263980 0.347140
vt 0.263980 0.529087
vt 0.263980 0.696096
vt 0.263980 0.893793
vt 0.263980 0.990494
vt 0.320752 0.122967
vt 0.320752 0.012373
vt 0.320752 0.347140
vt 0.320752 0.529087
vt 0.320752 0.696096
vt 0.320752 0.893793
vt 0.320752 0.990494
vt 0.377578 0.122967
vt 0.377578 0.012373
vt 0.377578 0.347140
vt 0.377578 0.529087
vt 0.377578 0.696096
vt 0.377578 0.893793
vt 0.377578 0.990494
vt 0.434601 0.122967
vt 0.434601 0.012373
vt 0.434601 0.347140
vt 0.434601 0.529087
vt 0.434601 0.696096
vt 0.434601 0.893793
vt 0.434601 0.990494
vt 0.494575 0.122967
vt 0.494575 0.012373
vt 0.494575 0.347140
vt 0.494575 0.529087
vt 0.494575 0.696096
vt 0.494575 0.893793
vt 0.494575 0.990494
vt 0.559074 0.122967
vt 0.559074 0.012373
vt 0.559074 0.347140
vt 0.559074 0.529087
vt 0.559074 0.696096
vt 0.559074 0.893793
vt 0.559074 0.990494
vt 0.627103 0.122967
vt 0.627103 0.012373
vt 0.627103 0.347140
vt 0.627103 0.529087
vt 0.627103 0.696096
vt 0.627103 0.893793
vt 0.627103 0.990494
vt 0.697732 0.122967
vt 0.697732 0.012373
vt 0.697732 0.347140
vt 0.697732 0.529087
vt 0.697732 0.696096
vt 0.697732 0.893793
vt 0.697732 0.990494
vt 0.770161 0.122967
vt 0.770161 0.012373
vt 0.770161 0.347140
vt 0.770161 0.529087
vt 0.770161 0.696096
vt 0.770161 0.893793
vt 0.770161 0.990494
vt 0.843826 0.122967
vt 0.843826 0.012373
vt 0.843826 0.347140
vt 0.843826 0.529087
vt 0.843826 0.696096
vt 0.843826 0.893793
vt 0.843826 0.990494
vt 0.918496 0.122967
vt 0.918496 0.012373
vt 0.918496 0.347140
vt 0.918496 0.529087
vt 0.918496 0.696096
vt 0.918496 0.893793
vt 0.918496 0.990494
vt 0.994388 0.122967
vt 0.994388 0.012373
vt 0.994388 0.347140
vt 0.994388 0.529087
vt 0.994388 0.696096
vt 0.994388 0.893793
vt 0.994388 0.990494
s 1
f 2/1/1 9/2/2 8/3/3 1/4/4
f 3/5/5 10/6/6 9/2/2 2/1/1
f 4/7/7 11/8/8 10/6/6 3/5/5
f 5/9/9 12/10/10 11/8/8 4/7/7
f 6/11/11 13/12/12 12/10/10 5/9/9
f 7/13/13 14/14/14 13/12/12 6/11/11
f 9/2/2 16/15/15 15/16/16 8/3/3
f 10/6/6 17/17/17 16/15/15 9/2/2
f 11/8/8 18/18/18 17/17/17 10/6/6
f 12/10/10 19/19/19 18/18/18 11/8/8
f 13/12/12 20/20/20 19/19/19 12/10/10
f 14/14/14 21/21/21 20/20/20 13/12/12
f 16/15/15 23/22/22 22/23/23 15/16/16
f 17/17/17 24/24/24 23/22/22 16/15/15
f 18/18/18 25/25/25 24/24/24 17/17/17
f 19/19/19 26/26/26 25/25/25 18/18/18
f 20/20/20 27/27/27 26/26/26 19/19/19
f 21/21/21 28/28/28 27/27/27 20/20/20
f 23/22/22 30/29/29 29/30/30 22/23/23
f 24/24/24 31/31/31 30/29/29 23/22/22
f 25/25/25 32/32/32 31/31/31 24/24/24
f 26/26/26 33/33/33 32/32/32 25/25/25
f 27/27/27 34/34/34 33/33/33 26/26/26
f 28/28/28 35/35/35 34/34/34 27/27/27
f 30/29/29 37/36/36 36/37/37 29/30/30
f 31/31/31 38/38/38 37/36/36 30/29/29
f 32/32/32 39/39/39 38/38/38 31/31/31
f 33/33/33 40/40/40 39/39/39 32/32/32
f 34/34/34 41/41/41 40/40/40 33/33/33
f 35/35/35 42/42/42 41/41/41 34/34/34
f 37/36/36 44/43/43 43/44/44 36/37/37
f 38/38/38 45/45/45 44/43/43 37/36/36
f 39/39/39 46/46/46 45/45/45 38/38/38
f 40/40/40 47/47/47 46/46/46 39/39/39
f 41/41/41 48/48/48 47/47/47 40/40/40
f 42/42/42 49/49/49 48/48/48 41/41/41
f 44/43/43 51/50/50 50/51/51 43/44/44
f 45/45/45 52/52/52 51/50/50 44/43/43
f 46/46/46 53/53/53 52/52/52 45/45/45
f 47/47/47 54/54/54 53/53/53 46/46/46
f 48/48/48 55/55/55 54/54/54 47/47/47
f 49/49/49 56/56/56 55/55/55 48/48/48
f 51/50/50 58/57/57 57/58/58 50/51/51
f 52/52/52 59/59/59 58/57/57 51/50/50
f 53/53/53 60/60/60 59/59/59 52/52/52
f 54/54/54 61/61/61 60/60/60 53/53/53
f 55/55/55 62/62/62 61/61/61 54/54/54
f 56/56/56 63/63/63 62/62/62 55/55/55
f 58/57/57 65/64/64 64/65/65 57/58/58
f 59/59/59 66/66/66 65/64/64 58/57/57
f 60/60/60 67/67/67 66/66/66 59/59/59
f 61/61/61 68/68/68 67/67/67 60/60/60
f 62/62/62 69/69/69 68/68/68 61/61/61
f 63/63/63 70/70/70 69/69/69 62/62/62
f 65/64/64 72/71/71 71/72/72 64/65/65
f 66/66/66 73/73/73 72/71/71 65/64/64
f 67/67/67 74/74/74 73/73/73 66/66/66
f 68/68/68 75/75/75 74/74/74 67/67/67
f 69/69/69 76/76/76 75/75/75 68/68/68
f 70/70/70 77/77/77 76/76/76 69/69/69
f 72/71/71 79/78/78 78/79/79 71/72/72
f 73/73/73 80/80/80 79/78/78 72/71/71
f 74/74/74 81/81/81 80/80/80 73/73/73
f 75/75/75 82/82/82 81/81/81 74/74/74
f 76/76/76 83/83/83 82/82/82 75/75/75
f 77/77/77 84/84/84 83/83/83 76/76/76
f 79/78/78 86/85/85 85/86/86 78/79/79
f 80/80/80 87/87/87 86/85/85 79/78/78
f 81/81/81 88/88/88 87/87/87 80/80/80
f 82/82/82 89/89/89 88/88/88 81/81/81
f 83/83/83 90/90/90 89/89/89 82/82/82
f 84/84/84 91/91/91 90/90/90 83/83/83
f 86/85/85 93/92/92 92/93/93 85/86/86
f 87/87/87 94/94/94 93/92/92 86/85/85
f 88/88/88 95/95/95 94/94/94 87/87/87
f 89/89/89 96/96/96 95/95/95 88/88/88
f 90/90/90 97/97/97 96/96/96 89/89/89
f 91/91/91 98/98/98 97/97/97 90/90/90
f 93/92/92 100/99/99 99/100/100 92/93/93
f 94/94/94 101/101/101 100/99/99 93/92/92
f 95/95/95 102/102/102 101/101/101 94/94/94
f 96/96/96 103/103/103 102/102/102 95/95/95
f 97/97/97 104/104/104 103/103/103 96/96/96
f 98/98/98 105/105/105 104/104/104 97/97/97
f 100/99/99 107/106/106 106/107/107 99/100/100
f 101/101/101 108/108/108 107/106/106 100/99/99
f 102/102/102 109/109/109 108/108/108 101/101/101
f 103/103/103 110/110/110 109/109/109 102/102/102
f 104/104/104 111/111/111 110/110/110 103/103/103
f 105/105/105 112/112/112 111/111/111 104/104/104
f 107/106/106 114/113/113 113/114/114 106/107/107
f 108/108/108 115/115/115 114/113/113 107/106/106
f 109/109/109 116/116/116 115/115/115 108/108/108
f 110/110/110 117/117/117 116/116/116 109/109/109
f 111/111/111 118/118/118 117/117/117 110/110/110
f 112/112/112 119/119/119 118/118/118 111/111/111
f 120/1/120 1/4/4 8/3/3 125/2/121
f 121/5/122 120/1/120 125/2/121 126/6/123
f 122/7/124 121/5/122 126/6/123 127/8/125
f 123/9/126 122/7/124 127/8/125 128/10/127
f 124/11/128 123/9/126 128/10/127 129/12/129
f 7/13/13 124/11/128 129/12/129 14/14/14
f 125/2/121 8/3/3 15/16/16 130/15/130
f 126/6/123 125/2/121 130/15/130 131/17/131
f 127/8/125 126/6/123 131/17/131 132/18/132
f 128/10/127 127/8/125 132/18/132 133/19/133
f 129/12/129 128/10/127 133/19/133 134/20/134
f 14/14/14 129/12/129 134/20/134 21/21/21
f 130/15/130 15/16/16 22/23/23 135/22/135
f 131/17/131 130/15/130 135/22/135 136/24/136
f 132/18/132 131/17/131 136/24/136 137/25/137
f 133/19/133 132/18/132 137/25/137 138/26/138
f 134/20/134 133/19/133 138/26/138 139/27/139
f 21/21/21 134/20/134 139/27/139 28/28/28
f 135/22/135 22/23/23 29/30/30 140/29/140
f 136/24/136 135/22/135 140/29/140 141/31/141
f 137/25/137 136/24/136 141/31/141 142/32/142
f 138/26/138 137/25/137 142/32/142 143/33/143
f 139/27/139 138/26/138 143/33/143 144/34/144
f 28/28/28 139/27/139 144/34/144 35/35/35
f 140/29/140 29/30/30 36/37/37 145/36/145
f 141/31/141 140/29/140 145/36/145 146/38/146
f 142/32/142 141/31/141 146/38/146 147/39/147
f 143/33/143 142/32/142 147/39/147 148/40/148
f 144/34/144 143/33/143 148/40/148 149/41/149
f 35/35/35 144/34/144 149/41/149 42/42/42
f 145/36/145 36/37/37 43/44/44 150/43/150
f 146/38/146 145/36/145 150/43/150 151/45/151
f 147/39/147 146/38/146 151/45/151 152/46/152
f 148/40/148 147/39/147 152/46/152 153/47/153
f 149/41/149 148/40/148 153/47/153 154/48/154
f 42/42/42 149/41/149 154/48/154 49/49/49
f 150/43/150 43/44/44 50/51/51 155/50/155
f 151/45/151 150/43/150 155/50/155 156/52/156
f 152/46/152 151/45/151 156/52/156 157/53/157
f 153/47/153 152/46/152 157/53/157 158/54/158
f 154/48/154 153/47/153 158/54/158 159/55/159
f 49/49/49 154/48/154 159/55/159 56/56/56
f 155/50/155 50/51/51 57/58/58 160/57/160
f 156/52/156 155/50/155 160/57/160 161/59/161
f 157/53/157 156/52/156 161/59/161 162/60/162
f 158/54/158 157/53/157 162/60/162 163/61/163
f 159/55/159 158/54/158 163/61/163 164/62/164
f 56/56/56 159/55/159 164/62/164 63/63/63
f 160/57/160 57/58/58 64/65/65 165/64/165
f 161/59/161 160/57/160 165/64/165 166/66/166
f 162/60/162 161/59/161 166/66/166 167/67/167
f 163/61/163 162/60/162 167/67/167 168/68/168
f 164/62/164 163/61/163 168/68/168 169/69/169
f 63/63/63 164/62/164 169/69/169 70/70/70
f 165/64/165 64/65/65 71/72/72 170/71/170
f 166/66/166 165/64/165 170/71/170 171/73/171
f 167/67/167 166/66/166 171/73/171 172/74/172
f 168/68/168 167/67/167 172/74/172 173/75/173
f 169/69/169 168/68/168 173/75/173 174/76/174
f 70/70/70 169/69/169 174/76/174 77/77/77
f 170/71/170 71/72/72 78/79/79 175/78/175
f 171/73/171 170/71/170 175/78/175 176/80/176
f 172/74/172 171/73/171 176/80/176 177/81/177
f 173/75/173 172/74/172 177/81/177 178/82/178
f 174/76/174 173/75/173 178/82/178 179/83/179
f 77/77/77 174/76/174 179/83/179 84/84/84
f 175/78/175 78/79/79 85/86/86 180/85/180
f 176/80/176 175/78/175 180/85/180 181/87/181
f 177/81/177 176/80/176 181/87/181 182/88/182
f 178/82/178 177/81/177 182/88/182 183/89/183
f 179/83/179 178/82/178 183/89/183 184/90/184
f 84/84/84 179/83/179 184/90/184 91/91/91
f 180/85/180 85/86/86 92/93/93 185/92/185
f 181/87/181 180/85/180 185/92/185 186/94/186
f 182/88/182 181/87/181 186/94/186 187/95/187
f 183/89/183 182/88/182 187/95/187 188/96/188
f 184/90/184 183/89/183 188/96/188 189/97/189
f 91/91/91 184/90/184 189/97/189 98/98/98
f 185/92/185 92/93/93 99/100/100 190/99/190
f 186/94/186 185/92/185 190/99/190 191/101/191
f 187/95/187 186/94/186 191/101/191 192/102/192
f 188/96/188 187/95/187 192/102/192 193/103/193
f 189/97/189 188/96/188 193/103/193 194/104/194
f 98/98/98 189/97/189 194/104/194 105/105/105
f 190/99/190 99/100/100 106/107/107 195/106/195
f 191/101/191 190/99/190 195/106/195 196/108/196
f 192/102/192 191/101/191 196/108/196 197/109/197
f 193/103/193 192/102/192 197/109/197 198/110/198
f 194/104/194 193/103/193 198/110/198 199/111/199
f 105/105/105 194/104/194 199/111/199 112/112/112
f 195/106/195 106/107/107 113/114/114 114/113/113
f 196/108/196 195/106/195 114/113/113 200/115/200
f 197/109/197 196/108/196 200/115/200 201/116/201
f 198/110/198 197/109/197 201/116/201 202/117/202
f 199/111/199 198/110/198 202/117/202 118/118/118
f 112/112/112 199/111/199 118/118/118 119/119/119
